<svg xmlns="http://www.w3.org/2000/svg" viewBox="0 0 235.19 66.65"><defs><style>.cls-1{fill:#e30613;}.cls-2{fill:#fff;}</style></defs><title>Fichier 3</title><g id="Calque_2" data-name="Calque 2"><g id="Logo_Final_-_copie" data-name="Logo Final - copie"><g id="Logo_bet-sport-online_white"><g id="BET"><path class="cls-1" d="M51.49,22H42.21c-10,0-13.58-5.65-13.58-10.94S32.2.13,42.21.13h9.54v6H42.21c-5,0-7.58,1.66-7.58,4.93S37.18,16,42.21,16h9.28Z"/><path class="cls-1" d="M51.62,34.74H42.34c-10,0-13.58-5.65-13.58-10.94h6c0,3.28,2.55,4.94,7.58,4.94h9.28Z"/><polygon class="cls-1" points="79.19 0 56.27 0 56.27 6 64.73 6 64.73 34.79 70.73 34.79 70.73 6 79.19 6 79.19 0"/><path class="cls-1" d="M21.37,17.43a9.12,9.12,0,0,0,3.33-7.15C24.7,5.37,21.13.13,11.12.13H0V34.74H11.12c10,0,13.58-5.25,13.58-10.16A9.13,9.13,0,0,0,21.37,17.43ZM11.12,6.13c3.46,0,7.58.72,7.58,4.15s-4.12,4.15-7.58,4.15H6V6.13Zm0,22.61H6V20.43h5.12c3.46,0,7.58.72,7.58,4.15S14.58,28.74,11.12,28.74Z"/></g><g id="SPORT"><path class="cls-2" d="M107.93,15.33v0c-3.2,0-8.58-.66-8.58-5.15S104.73,5,107.93,5h9.54V1h-9.54C96.26,1,95.35,8,95.35,10.15s.86,8.73,11.54,9.13v0c3.2,0,8.58.67,8.58,5.15s-5.38,5.15-8.58,5.15H97.35v4h9.54c11.67,0,12.58-7,12.58-9.15S118.61,15.73,107.93,15.33Z"/><polygon class="cls-2" points="235.19 1 212.26 1 212.26 5 221.73 5 221.73 33.38 225.73 33.38 225.73 5 235.19 5 235.19 1"/><path class="cls-2" d="M133.67,1H124.4V5h9.27c3.92,0,8.58,1,8.58,5.94s-4.66,5.93-8.58,5.93h-9.54V33.5h4V20.87h5.54c11.68,0,12.58-7.6,12.58-9.93S145.35,1,133.67,1Z"/><path class="cls-2" d="M165.87.82A16.78,16.78,0,1,0,182.64,17.6,16.8,16.8,0,0,0,165.87.82Z"/><path class="cls-2" d="M206.47,28.63c-3.49,2.89-7.14,0-9.58-3L193.06,21h3.19c11.54,0,12.43-7.52,12.43-9.82s-.89-9.83-12.43-9.83h-9.14v4h9.14c3.85,0,8.43,1,8.43,5.83S200.1,17,196.25,17h-9.4V33.38h4V24.62l3,3.58c3.6,4.35,6.91,5.62,9.56,5.62a9.11,9.11,0,0,0,5.66-2.1Z"/></g><g id="ONLINE"><g id="nline"><g id="e"><path class="cls-2" d="M225.79,58.64h-5.26c-5.49,0-7.45-3.07-7.45-6s2-5.94,7.45-5.94h5.41v2.89h-5.41c-3,0-4.56,1-4.56,3s1.53,3.06,4.56,3.06h5.26Z"/><path class="cls-2" d="M225.86,65.86H220.6c-5.49,0-7.44-3.07-7.44-5.94h2.89c0,2,1.53,3,4.55,3h5.26Z"/></g><path id="n" class="cls-2" d="M209.68,65.91h-3.05V57.65c0-3.58-1-7.85-5.51-7.85s-5.51,4.27-5.51,7.85v8.26h-3.06V57.65c0-6.83,3.21-10.9,8.57-10.9s8.56,4.07,8.56,10.9Z"/><rect id="i" class="cls-2" x="184.07" y="48.03" width="3" height="17.9"/><path id="l" class="cls-2" d="M178.94,65.94c-2,0-8.46-.73-8.46-10.12V48h3.08v7.81c0,3.3.93,7.23,5.38,7.23Z"/><path id="n-2" data-name="n" class="cls-2" d="M166.15,65.91h-3.06V57.65c0-3.58-1-7.85-5.51-7.85s-5.51,4.27-5.51,7.85v8.26h-3V57.65c0-6.83,3.2-10.9,8.56-10.9s8.57,4.07,8.57,10.9Z"/></g><path class="cls-1" d="M135.25,66.65a10.33,10.33,0,1,1,10.32-10.32A10.33,10.33,0,0,1,135.25,66.65Zm0-16.65a6.33,6.33,0,1,0,6.32,6.33A6.33,6.33,0,0,0,135.25,50Z"/></g></g></g></g></svg>