<svg xmlns="http://www.w3.org/2000/svg" viewBox="0 0 32.03 9.07"><defs><style>.cls-1{fill:red;}.cls-2{fill:#fff;stroke:#000;stroke-miterlimit:10;stroke-width:0.05px;}</style></defs><title>Fichier 1</title><g id="Calque_2" data-name="Calque 2"><g id="Calque_1-2" data-name="Calque 1"><g id="Calque_2-2" data-name="Calque 2"><g id="Logo_Final_-_copie" data-name="Logo Final - copie"><g id="Logo_bet-sport-online_white" data-name="Logo bet-sport-online white"><g id="BET"><path class="cls-1" d="M7,3H5.74C4.38,3,3.89,2.22,3.89,1.51S4.38,0,5.74,0H7V.83H5.74c-.68,0-1,.23-1,.68s.35.67,1,.67H7Z"/><path class="cls-1" d="M7,4.73H5.76C4.4,4.73,3.91,4,3.91,3.24h.82c0,.44.35.67,1,.67H7Z"/><polygon class="cls-1" points="10.77 0 7.66 0 7.66 0.82 8.81 0.82 8.81 4.73 9.62 4.73 9.62 0.82 10.77 0.82 10.77 0"/><path class="cls-1" d="M2.91,2.37a1.23,1.23,0,0,0,.45-1C3.36.73,2.88,0,1.51,0H0V4.73H1.51c1.36,0,1.85-.72,1.85-1.39A1.23,1.23,0,0,0,2.91,2.37ZM1.51.83c.47,0,1,.1,1,.57S2,2,1.51,2H.82V.83Zm0,3.08H.82V2.78h.69c.47,0,1,.1,1,.56S2,3.91,1.51,3.91Z"/></g><g id="SPORT"><path class="cls-2" d="M14.69,2.09h0c-.44,0-1.17-.09-1.17-.7s.73-.71,1.17-.71H16V.14H14.69C13.1.14,13,1.09,13,1.38s.12,1.19,1.57,1.24h0c.44,0,1.17.09,1.17.7S15,4,14.54,4h-1.3v.54h1.3c1.59,0,1.71-1,1.71-1.25S16.14,2.14,14.69,2.09Z"/><polygon class="cls-2" points="32 0.14 28.88 0.14 28.88 0.68 30.17 0.68 30.17 4.54 30.71 4.54 30.71 0.68 32 0.68 32 0.14"/><path class="cls-2" d="M18.19.14H16.93V.68h1.26c.53,0,1.16.14,1.16.81s-.63.81-1.16.81h-1.3V4.56h.54V2.84h.76c1.59,0,1.71-1,1.71-1.35S19.78.14,18.19.14Z"/><path class="cls-2" d="M22.57.11A2.29,2.29,0,1,0,24.85,2.4h0A2.29,2.29,0,0,0,22.57.11Z"/><path class="cls-2" d="M28.09,3.9c-.47.39-1,0-1.3-.41l-.52-.63h.43c1.57,0,1.69-1,1.69-1.34S28.27.18,26.7.18H25.46V.73H26.7c.53,0,1.15.13,1.15.79s-.62.79-1.15.79H25.42V4.54H26V3.35l.41.49a1.72,1.72,0,0,0,1.3.76,1.22,1.22,0,0,0,.77-.28Z"/></g><g id="ONLINE"><g id="nline"><g id="e"><path class="cls-2" d="M30.72,8H30c-.75,0-1-.42-1-.82s.27-.81,1-.81h.73v.4H30c-.41,0-.62.13-.62.4s.2.42.62.42h.71Z"/><path class="cls-2" d="M30.73,9H30c-.74,0-1-.42-1-.81h.4c0,.27.2.41.61.41h.72Z"/></g><path id="n" class="cls-2" d="M28.53,9h-.42V7.84c0-.48-.13-1.06-.75-1.06s-.75.58-.75,1.06V9H26.2V7.84c0-.93.43-1.48,1.16-1.48s1.17.56,1.17,1.48Z"/><rect id="i" class="cls-2" x="25.05" y="6.53" width="0.41" height="2.43"/><path id="l" class="cls-2" d="M24.35,9c-.27,0-1.15-.1-1.15-1.38V6.53h.42V7.59c0,.45.12,1,.73,1Z"/><path id="n-2" class="cls-2" d="M22.61,9h-.42V7.84c0-.48-.14-1.06-.75-1.06s-.75.58-.75,1.06V9h-.41V7.84c0-.93.44-1.48,1.17-1.48s1.16.56,1.16,1.48Z"/></g><path class="cls-1" d="M18.4,9.07A1.41,1.41,0,0,1,17,7.66a1.39,1.39,0,0,1,1.4-1.4,1.41,1.41,0,0,1,1.41,1.4h0A1.41,1.41,0,0,1,18.4,9.07Zm0-2.27a.87.87,0,0,0-.86.86.86.86,0,0,0,1.72,0h0A.86.86,0,0,0,18.4,6.8Z"/></g></g></g></g></g></g></svg>