<svg xmlns="http://www.w3.org/2000/svg" viewBox="0 0 32 32"><defs><style>.cls-1{fill:#1d1d1b;}.cls-2{fill:#fff;}.cls-3{fill:#df1319;}</style></defs><title>Fichier 8</title><g id="Calque_2" data-name="Calque 2"><g id="Favicon3"><rect class="cls-1" width="32" height="32"/><path id="S" class="cls-2" d="M23.91,14.54h0c-1.64,0-4.38-.34-4.38-2.62s2.74-2.63,4.38-2.63h4.86v-2H23.91c-6,0-6.42,3.57-6.42,4.67s.44,4.44,5.88,4.65h0c1.64,0,4.38.34,4.38,2.63S25,21.82,23.37,21.82H18.51v2h4.86c5.95,0,6.41-3.57,6.41-4.66S29.35,14.75,23.91,14.54Z"/><g id="B"><path class="cls-3" d="M13.71,15.55a4.64,4.64,0,0,0,1.7-3.65c0-2.51-1.82-5.19-6.93-5.19H2.8V24.39H8.48c5.11,0,6.93-2.68,6.93-5.18A4.68,4.68,0,0,0,13.71,15.55ZM8.48,9.78c1.76,0,3.87.37,3.87,2.12S10.24,14,8.48,14H5.86V9.78Zm0,11.55H5.86V17.09H8.48c1.76,0,3.87.36,3.87,2.12S10.24,21.33,8.48,21.33Z"/></g></g></g></svg>