<svg xmlns="http://www.w3.org/2000/svg" viewBox="0 0 32 32"><defs><style>.cls-1{fill:#1d1d1b;}.cls-2{fill:#fff;}.cls-3{fill:#df1319;}</style></defs><title>Fichier 9</title><g id="Calque_2" data-name="Calque 2"><g id="Favicon3"><rect class="cls-1" width="32" height="32"/><path id="S" class="cls-2" d="M24.33,14.57h0c-1.59,0-4.25-.33-4.25-2.55s2.66-2.56,4.25-2.56h4.73v-2H24.33c-5.79,0-6.24,3.47-6.24,4.54s.42,4.32,5.72,4.52v0c1.59,0,4.25.33,4.25,2.55s-2.66,2.55-4.25,2.55H19.08v2h4.73c5.79,0,6.24-3.48,6.24-4.54S29.62,14.77,24.33,14.57Z"/><g id="B"><path class="cls-3" d="M14.14,15.55a4.64,4.64,0,0,0,1.7-3.65c0-2.51-1.82-5.19-6.93-5.19H3.23V24.39H8.91c5.11,0,6.93-2.68,6.93-5.18A4.68,4.68,0,0,0,14.14,15.55ZM8.91,9.78c1.76,0,3.87.37,3.87,2.12S10.67,14,8.91,14H6.29V9.78Zm0,11.55H6.29V17.09H8.91c1.76,0,3.87.36,3.87,2.12S10.67,21.33,8.91,21.33Z"/></g></g></g></svg>