<svg xmlns="http://www.w3.org/2000/svg" viewBox="0 0 32 32"><defs><style>.cls-1{fill:#1d1d1b;}.cls-2{fill:#fff;}.cls-3{fill:#df1319;}</style></defs><title>Fichier 1</title><g id="Calque_2" data-name="Calque 2"><g id="Favicon3"><rect class="cls-1" width="32" height="32"/><path id="S" class="cls-2" d="M23.68,14.48h0c-1.74,0-4.66-.36-4.66-2.79s2.92-2.8,4.66-2.8h5.17V6.71H23.68c-6.33,0-6.82,3.8-6.82,5s.46,4.72,6.25,4.95h0c1.74,0,4.65.36,4.65,2.79s-2.91,2.79-4.65,2.79H17.94v2.17h5.17c6.33,0,6.82-3.79,6.82-5S29.46,14.7,23.68,14.48Z"/><g id="B"><path class="cls-3" d="M13.36,15.55a4.64,4.64,0,0,0,1.7-3.65c0-2.51-1.82-5.19-6.93-5.19H2.45V24.39H8.13c5.11,0,6.93-2.68,6.93-5.18A4.68,4.68,0,0,0,13.36,15.55ZM8.13,9.78c1.76,0,3.87.37,3.87,2.12S9.89,14,8.13,14H5.51V9.78Zm0,11.55H5.51V17.09H8.13c1.76,0,3.87.36,3.87,2.12S9.89,21.33,8.13,21.33Z"/></g></g></g></svg>