<svg xmlns="http://www.w3.org/2000/svg" viewBox="0 0 32 32"><defs><style>.cls-1{fill:#1d1d1b;}.cls-2{fill:#fff;}.cls-3{fill:#df1319;}</style></defs><title>Fichier 5</title><g id="Calque_2" data-name="Calque 2"><g id="Favicon3"><rect class="cls-1" width="32" height="32"/><path id="S" class="cls-2" d="M23.92,14.5h0c-1.71,0-4.58-.36-4.58-2.75S22.21,9,23.92,9H29V6.86H23.92c-6.23,0-6.71,3.73-6.71,4.88s.45,4.65,6.15,4.87h0c1.71,0,4.58.36,4.58,2.75s-2.87,2.75-4.58,2.75H18.27v2.13h5.09c6.23,0,6.71-3.74,6.71-4.88S29.61,14.72,23.92,14.5Z"/><g id="B"><path class="cls-3" d="M13.71,15.55a4.64,4.64,0,0,0,1.7-3.65c0-2.51-1.82-5.19-6.93-5.19H2.8V24.39H8.48c5.11,0,6.93-2.68,6.93-5.18A4.68,4.68,0,0,0,13.71,15.55ZM8.48,9.78c1.76,0,3.87.37,3.87,2.12S10.24,14,8.48,14H5.86V9.78Zm0,11.55H5.86V17.09H8.48c1.76,0,3.87.36,3.87,2.12S10.24,21.33,8.48,21.33Z"/></g></g></g></svg>